<svg enable-background="new 0 0 176 30" viewBox="0 0 176 30" xmlns="http://www.w3.org/2000/svg"><path d="m170.9 25.9c0-1.2.9-2 1.9-2 1.1 0 1.9.8 1.9 2s-.9 2-1.9 2c-1 .1-1.9-.8-1.9-2m-.7 0c0 1.6 1.2 2.6 2.6 2.6s2.6-1 2.6-2.6-1.2-2.6-2.6-2.6c-1.3.1-2.6 1.1-2.6 2.6m1.6 1.5h.6v-1.2h.4l.7 1.2h.6l-.8-1.3c.4 0 .8-.2.8-.8s-.4-.8-1.1-.8h-1.1v2.9zm.6-2.5h.5c.3 0 .6 0 .6.4s-.2.4-.6.4h-.5zm-126.4-18.8h-7.9v22.9h7.9zm34.8 0 .7.9-6.9 14.5s-8.5-15-8.6-15.3h-12.8l1.9 2.4v20.4h4.7v-17.5l9.7 17.5h5.3l8.2-17.4v15.6l-.8 1.8h8.8v-22.9zm44.8 0 .7.9-7 14.5s-8.1-15-8.3-15.3h-12.7l1.9 2.4v20.4h4.7v-17.5l9.3 17.5h5.3l8.5-17.4v15.6l-.9 1.8h8.8v-22.9zm-102.6 17.8c-.3 2.7-5 3-6.7 2.9-6.1-.4-10-3.7-11.2-4.9l-4.7 3.5c5 3.1 10.6 4.7 16.3 4.6 7.4-.1 15.2-2.6 15.2-9.7 0-5.4-7.4-7.8-12.9-9.2s-9.1-2.3-8.6-4.9c.4-2.1 3.7-3.1 6.6-3.1 5.6.1 8.3 2.6 9.4 3.8l4.7-3.5c-3.5-2-8.9-3.3-14.3-3.4-3.4 0-9.6.5-13 3.8-1.4 1.5-2.1 3.3-2.1 5.6-.1 5.3 8.4 7.7 12 8.8l.6.2c4.6 1.4 9.1 2.7 8.7 5.5zm131.5 3.1c-4.4 0-7.9-2.8-9-3.9-.3.2-2.9 2.2-3.5 2.6 3.9 2.4 8.3 3.7 12.8 3.6 5.9-.1 12.7-2 12.7-7.5 0-4.5-4.9-6.3-9.7-7.6l-2.3-.5c-3-.6-6.1-1.3-5.9-3.4.2-2.5 3.8-2.7 5.4-2.7 4.3.1 6.6 2.1 7.5 3.1.3-.2 3.1-2.3 3.6-2.7-2.8-1.6-7-2.6-11.2-2.6-1.7 0-7.5.2-10.5 3.2-1.2 1.2-1.8 2.7-1.8 4.4 0 4.6 5.5 6 9.1 7l2.1.5c3.1.7 6.3 1.5 6.3 3.9 0 .5-.2 1-.6 1.3-1.1 1.1-3.3 1.3-5 1.3" fill="#fb632f"/></svg>